<?xml version="1.0" encoding="UTF-8"?>
<svg version="1.1" viewBox="0 0 2048 1365" width="1280" height="1280" xmlns="http://www.w3.org/2000/svg">
<path transform="translate(0)" d="m0 0h2048v1365h-2048z" fill="#FFFFFE"/>
<path transform="translate(1351,582)" d="m0 0h42l14 1 13 4 8 6 7 8 4 8 3 14v16l-3 14-5 10-9 8 10 23 8 17v2h-44l-4-10-5-15-1 25h-38l-1-1v-91h-7l1-9z" fill="#FFFFFE"/>
<path transform="translate(676,585)" d="m0 0h50l14 3 8 6 4 6 3 11v13l-3 10-7 8-2 3 5 2 5 4 4 8 2 9v14l-2 9-5 9-8 7-9 3h-59v-91h-7l2-12z" fill="#FFA756"/>
<path transform="translate(492,585)" d="m0 0h40l14 3 8 4 11 10 7 11 4 10 2 10 1 19-2 15-4 13-6 11-7 8-10 7-9 3-5 1h-43v-91h-8l5-25z" fill="#FFA756"/>
<path transform="translate(815,581)" d="m0 0h30l-4 20-4 17-1 1h-30v15h36l-1 9-4 18-2 1h-28l-1 15h36l-2 12-5 21h-63v-91h-7l1-9 6-25h43z" fill="#FFA756"/>
<path transform="translate(634,581)" d="m0 0h29l-1 9-6 28-1 1h-30v15h36l-2 12-3 14-1 1h-30v16h36l-5 25-2 8h-63v-91h-7l1-10 5-23 1-1h43z" fill="#FFA756"/>
<path transform="translate(906,580)" d="m0 0 11 2 16 4-1 8-6 24-1 2-5-2-9-4-4-1h-11l-4 2-1 5 4 5 24 13 10 9 5 10 2 9v9l-3 13-6 10-9 8-8 4-7 2h-20l-12-3-16-8 1-9 6-23 5 2 8 4 11 3h9l4-4-1-7-10-6-19-10-10-9-5-10-1-5v-14l4-12 7-9 9-6 10-3h12l10 2z" fill="#FFA756"/>
<path transform="translate(1254,587)" d="m0 0h28l1 1 1 82 3 8 6 3 7-2 3-4 1-4 1-83 1-1h27l1 1v88l-3 13-6 9-8 7-10 4-6 1h-14l-11-3-9-5-8-9-4-11-1-8v-58h-7l6-28z" fill="#FFFFFE"/>
<path transform="translate(1197,614)" d="m0 0 13 1 10 4 8 6 7 8 5 11 3 14v13l-3 14-7 14-9 9-10 5-8 2h-11l-10-3-10-6-8-9-6-13-2-9v-21l4-14 6-10 5-6 11-7z" fill="#FFFFFE"/>
<path transform="translate(1133,584)" d="m0 0 20 9-2 9-8 21h-3l-9-6-4-1h-9l-8 4-5 7-2 7-1 8v12l2 12 5 10 6 4 7 1 9-3 8-7 4-2 9 24-1 5-10 7-11 4-5 1h-12l-12-4-10-6-8-8-8-14-4-16v-26l4-17 8-15 11-11 10-5 6-2h16l5 1z" fill="#FFFFFE"/>
<path transform="translate(987,581)" d="m0 0h29l-1 9-6 27-1 2h-17v91l-33 1-1-1v-91h-17l1-8 6-26h39z" fill="#FFA756"/>
<path transform="translate(1250,582)" d="m0 0h38l1 87 2 6h6l2-4 1-89h39v94l-3 14-6 10-7 7-12 6-10 2h-14l-12-3-8-4-10-9-6-12-2-13v-53h-8l5-25 3-13zm4 5-2 5-5 24h7v58l2 12 5 10 9 8 8 4 9 2h14l12-3 9-6 7-8 4-11 1-6v-88l-1-1h-27l-1 1-1 83-3 7-2 2-6 1-6-3-3-8-1-82-1-1z" fill="#FFA756"/>
<path transform="translate(1584,578)" d="m0 0h35l-1 8-8 35h-30v10h36l-1 11-5 22h-30v10h37l-8 37-1 2h-67v-92h-8l1-8 7-30 1-1h42zm5 5v4h-43l-3 9-4 20h7v92h58l4-16 2-9v-4h-35v-20h31l4-18v-5h-35v-20h31l7-30v-3z" fill="#FFA756"/>
<path transform="translate(1500,577)" d="m0 0 11 2 21 5-1 8-8 33-18-9-11-1-4 2 1 5 24 13 10 8 6 9 3 10v17l-3 10-5 9-6 7-10 6-8 3-6 1h-13l-15-3-16-7-4-2 1-9 7-29 5 2 12 6 6 2 9 1 5-1-2-7-26-14-11-9-5-9-3-12v-8l3-12 5-9 8-8 10-5 3-1h20l4 1zm4 6-1 5-9-2h-18l-12 6-7 7-4 8-2 10 1 13 5 10 8 8 12 7 16 8 4 5v8l-4 4-8 1-10-2-12-5-3-1-3 9-4 17 8 5 16 5 7 1h12l13-4 6-4 5-5 4-5 4-9 1-5v-15l-4-11-6-8-13-8-15-8-5-4-1-2v-7l3-3 6-2 11 1 11 4 4 1 6-25v-3l-20-5z" fill="#FFA756"/>
<path transform="translate(1351,582)" d="m0 0h42l14 1 13 4 8 6 7 8 4 8 3 14v16l-3 14-5 10-9 8 10 23 8 17v2h-44l-4-10-5-15-1 25h-38l-1-1v-91h-7l1-9zm5 5-3 7-4 18v4l6 1 1 91h28v-36h7l3 12 8 24h33l-3-9-13-28-1-3 5-2 6-5 6-12 2-11v-15l-3-13-6-10-9-8-13-4-15-1z" fill="#FFA756"/>
<path transform="translate(1130,578)" d="m0 0 5 1 25 12-7 20-9 23-3-1-7-8-5-3-3-1h-7l-6 3-4 7-2 11v12l3 14 3 5 7 3 8-2 8-7 6-9h2l14 37-1 5-10 7-10 5-12 3h-12l-13-4-8-4-10-9-7-9-6-13-3-13v-28l4-17 7-14 9-11 10-7 9-4 4-1h19zm3 6-3 3-4-1h-16l-13 5-10 9-6 7-7 15-3 14v26l4 16 6 11 9 10 9 6 10 4 4 1h12l13-4 11-6 3-3-1-6-8-22-4 2-8 7-9 3-9-2-5-5-4-8-2-12v-12l2-12 4-8 5-4 5-2h9l8 3 6 5 2-1 10-27v-3z" fill="#FFA756"/>
<path transform="translate(1197,614)" d="m0 0 13 1 10 4 8 6 7 8 5 11 3 14v13l-3 14-7 14-9 9-10 5-8 2h-11l-10-3-10-6-8-9-6-13-2-9v-21l4-14 6-10 5-6 11-7zm2 5-10 2-9 5-8 8-6 12-2 9v19l3 11 5 10 6 7 10 6 7 2h10l10-3 8-5 8-9 5-12 2-11v-11l-3-14-5-10-8-9-12-6z" fill="#FFA756"/>
<path transform="translate(526,619)" d="m0 0 6 1 7 6 3 7 1 7v15l-3 12-5 7-7 3-2-1z" fill="#FFFFFE"/>
<path transform="translate(1197,646)" d="m0 0h7l6 5 2 7v15l-3 8-4 4h-8l-5-4-2-5-1-6v-9l3-10z" fill="#FFA756"/>
<path transform="translate(1385,615)" d="m0 0h9l8 4 4 8v11l-3 6-6 5-4 1h-7l-2-1v-33z" fill="#FFA756"/>
<path transform="translate(1199,651)" d="m0 0 5 1 3 7v14l-3 6-1 1h-5l-3-5-1-13 2-8z" fill="#FFFFFE"/>
<path transform="translate(710,657)" d="m0 0 9 1 4 5v11l-5 5h-8z" fill="#FFFFFE"/>
<path transform="translate(1390,620)" d="m0 0 6 1 4 4 1 2v10l-3 5-6 3-3-1v-23z" fill="#FFFFFE"/>
<path transform="translate(710,616)" d="m0 0h7l4 3 1 3v8l-2 4-6 2h-4z" fill="#FFFFFE"/>
</svg>
